Tonight is for me and nobody else. Nicole Aniston knows that, too. I've told her about my stressful job, all the arguing. Tonight I'm going to the boss; she's going to do whatever I say because I've paid for her services. If I want her to suck my cock with all of her clothes on, she's going to do it. This kind of night has been a long time coming for me. And not it has arrived.

General
Format                                   : MPEG-4
Format profile                           : Base Media / Version 2
Codec ID                                 : mp42
File size                                : 1.63 GiB
Duration                                 : 1h 2mn
Overall bit rate mode                    : Variable
Overall bit rate                         : 3 752 Kbps

Video
ID                                       : 1
Format                                   : AVC
Format/Info                              : Advanced Video Codec
Format profile                           : Main@L4.2
Format settings, CABAC                   : Yes
Format settings, ReFrames                : 3 frames
Format settings, GOP                     : M=4, N=10
Codec ID                                 : avc1
Codec ID/Info                            : Advanced Video Coding
Duration                                 : 1h 2mn
Bit rate mode                            : Constant
Bit rate                                 : 3 600 Kbps
Width                                    : 1 920 pixels
Height                                   : 1 080 pixels
Display aspect ratio                     : 16:9
Frame rate mode                          : Constant
Frame rate                               : 23.976 fps
Standard                                 : NTSC
Color space                              : YUV
Chroma subsampling                       : 4:2:0
Bit depth                                : 8 bits
Scan type                                : Progressive
Bits/(Pixel*Frame)                       : 0.072
Stream size                              : 1.56 GiB (96%)
Language                                 : English

Audio
ID                                       : 2
Format                                   : AAC
Format/Info                              : Advanced Audio Codec
Format profile                           : LC
Codec ID                                 : 40
Duration                                 : 1h 2mn
Source duration                          : 1h 2mn
Bit rate mode                            : Variable
Bit rate                                 : 157 Kbps
Maximum bit rate                         : 251 Kbps
Channel(s)                               : 2 channels
Channel positions                        : Front: L R
Sampling rate                            : 48.0 KHz
Compression mode                         : Lossy
Stream size                              : 70.0 MiB (4%)
Source stream size                       : 70.0 MiB
Language                                 : English